<svg width="105" height="105" viewBox="0 0 105 105" fill="none" xmlns="http://www.w3.org/2000/svg">
<path d="M9.95216 75.1434V31.5C9.95216 31.5 9.95216 28.3956 12.9652 26.7521C15.9783 25.1087 49.1217 5.29563 49.1217 5.29563C49.1217 5.29563 53.3217 2.4652 57.7043 5.29563C57.7043 5.29563 97.0565 27.1174 96.4174 28.3956L78.9782 38.6217C78.9782 38.6217 75.6913 30.9521 67.0174 26.7521C56.7 21.7304 39.9 21.0913 27.8478 38.8956C27.8478 38.8956 19.9956 51.2217 28.1217 67.7478L10.7739 77.5174C10.7739 77.5174 9.95216 76.9695 9.95216 75.1434Z" fill="#007DFE"/>
<path d="M65.9217 45.9261C63.3652 41.6348 58.7087 38.713 53.3217 38.713C45.2869 38.713 38.713 45.2869 38.713 53.3217C38.713 55.8782 39.3522 58.2521 40.5391 60.3521L65.9217 45.9261Z" fill="#007DFE"/>
<path d="M40.4478 60.2609C43.0044 64.5522 47.6609 67.4739 53.0478 67.4739C61.0826 67.4739 67.6565 60.9 67.6565 52.8652C67.6565 50.3087 67.0174 47.9348 65.8305 45.8348L40.4478 60.2609Z" fill="#007DFE"/>
<path d="M96.4174 28.3956L54.0522 52.5913L96.1435 77.3348C97.6043 76.4217 96.4174 28.3956 96.4174 28.3956ZM83.2696 54.8739H79.7087V58.4348H75.8739V54.8739H72.2217V51.1304H75.8739V47.3869H79.7087V51.1304H83.2696V54.8739ZM95.687 54.8739H92.1261V58.4348H88.2913V54.8739H84.6391V51.1304H88.2913V47.3869H92.1261V51.1304H95.687V54.8739Z" fill="#007DFE"/>
<path d="M28.0304 67.6565C28.0304 67.6565 36.4304 83.1783 54.0522 82.3565C71.6739 81.5348 78.9783 67.2 78.9783 67.2L96.0522 77.0609C96.0522 77.0609 99.7957 77.7913 58.0696 100.526C58.0696 100.526 53.5957 103.539 48.7565 100.526C48.7565 100.526 11.0478 79.4348 10.7739 77.4261C10.7739 77.4261 28.0304 67.6565 28.0304 67.6565Z" fill="#007DFE"/>
</svg>
