<svg width="95" height="101" viewBox="0 0 95 101" fill="none" xmlns="http://www.w3.org/2000/svg">
<g clip-path="url(#clip0)">
<path d="M47.0296 18.7145C42.64 21.9968 37.6649 25.717 34.9991 31.8719C30.3689 42.6101 44.4735 54.3232 45.0764 54.8166C45.2165 54.9312 45.3842 54.9884 45.5514 54.9884C45.7289 54.9884 45.9067 54.9239 46.0511 54.7953C46.331 54.5463 46.4105 54.1234 46.2424 53.779C46.1913 53.6744 41.1285 43.2193 41.3166 35.7188C41.3832 33.1064 44.822 30.1429 48.4624 27.0054C51.7967 24.1316 55.5763 20.8745 57.7877 17.0643C62.6424 8.67736 57.2466 0.430445 57.1915 0.347987C56.9772 0.0280214 56.5816 -0.0877741 56.2434 0.0698418C55.9055 0.228444 55.7183 0.616862 55.7955 1.00094C55.8064 1.05558 56.8557 6.50921 53.9359 12.1279C52.7332 14.4498 50.0902 16.426 47.0296 18.7145Z" fill="#8C6BCF"/>
<path d="M65.5237 22.4128C65.8334 22.1648 65.9243 21.7125 65.7371 21.3515C65.5495 20.9905 65.1413 20.8313 64.7787 20.9777C64.033 21.2791 46.5179 28.457 46.5179 37.1299C46.5179 43.1084 48.92 46.2666 50.674 48.5731C51.362 49.4777 51.9559 50.2589 52.1517 50.9259C52.7027 52.8478 51.3972 56.3217 50.8482 57.4982C50.6899 57.8363 50.7675 58.2462 51.0367 58.4932C51.1822 58.6268 51.3638 58.6946 51.5457 58.6946C51.7004 58.6946 51.8559 58.6457 51.9902 58.5463C52.2914 58.3238 59.3504 53.0177 58.0844 46.6249C57.6127 44.195 56.4896 42.4196 55.4986 40.8529C53.9634 38.4255 52.8545 36.6722 54.5367 33.4339C56.5076 29.6566 65.4334 22.4846 65.5237 22.4128Z" fill="#8C6BCF"/>
<path d="M19.9312 58.8319C19.6309 59.7877 19.7727 60.7358 20.3407 61.5745C22.2394 64.3771 28.9649 65.9201 39.2791 65.9201C39.2797 65.9201 39.2801 65.9201 39.2804 65.9201C40.678 65.9201 42.1534 65.8909 43.6647 65.8333C60.1553 65.2058 66.2717 59.7439 66.524 59.5117C66.799 59.2586 66.8725 58.8373 66.7016 58.4964C66.5305 58.1557 66.1618 57.9845 65.8095 58.0877C60.0016 59.7735 49.1569 60.372 41.6348 60.372C33.2178 60.372 28.9313 59.7273 27.8819 59.2513C28.4203 58.4652 31.7416 57.0615 35.8573 56.2008C36.2506 56.1187 36.521 55.7325 36.482 55.3084C36.443 54.8842 36.1079 54.5607 35.707 54.5607C33.2945 54.5607 21.1958 54.7667 19.9312 58.8319Z" fill="#8C6BCF"/>
<path d="M75.1119 53.2063C71.7106 53.2063 68.4853 55.0188 68.3494 55.0955C68.0349 55.2746 67.8754 55.6581 67.9616 56.0266C68.0483 56.3945 68.3595 56.6531 68.7163 56.6535C68.7884 56.6535 75.9715 56.7161 76.6221 61.0794C77.1984 64.8436 69.8257 70.9427 66.9361 72.9754C66.624 73.1949 66.5029 73.619 66.6478 73.986C66.7712 74.2982 67.0571 74.4935 67.3655 74.4935C67.4193 74.4935 67.4738 74.4876 67.528 74.4754C68.2138 74.3193 84.3026 70.55 82.6015 60.591C81.5638 54.4875 77.9556 53.2063 75.1119 53.2063Z" fill="#8C6BCF"/>
<path d="M64.0783 71.7566C64.1343 71.4377 64.0095 71.1132 63.7597 70.9267L59.902 68.0539C59.7138 67.9139 59.4762 67.8699 59.2554 67.932C59.2151 67.9429 55.1809 69.0705 49.3239 69.7619C46.9994 70.039 44.3958 70.1854 41.794 70.1854C35.9385 70.1854 32.1099 69.4539 31.5524 68.9174C31.4785 68.7667 31.5019 68.6982 31.5151 68.6601C31.6164 68.3607 32.1593 68.0048 32.5092 67.864C32.8957 67.7119 33.1041 67.2657 32.9839 66.8467C32.864 66.4271 32.4575 66.1803 32.0563 66.2827C28.1865 67.2755 26.2943 68.6639 26.432 70.4091C26.6765 73.5034 33.4179 75.0916 39.117 75.5114C39.9365 75.571 40.8229 75.6012 41.7508 75.6012C41.7514 75.6012 41.7517 75.6012 41.7523 75.6012C51.2289 75.6012 63.3779 72.44 63.4992 72.4078C63.7959 72.3309 64.0221 72.0762 64.0783 71.7566Z" fill="#8C6BCF"/>
<path d="M34.9947 78.3975C35.2869 78.1955 35.4164 77.8114 35.3127 77.4577C35.2093 77.104 34.8982 76.8716 34.5486 76.8765C34.03 76.8911 29.4741 77.1097 29.1551 80.1936C29.0586 81.1152 29.3069 81.9573 29.8934 82.6961C31.5292 84.7571 35.9448 85.9822 43.3903 86.441C44.2711 86.4972 45.1658 86.5255 46.05 86.5255C55.5157 86.5255 61.8907 83.3745 62.1577 83.2404C62.4166 83.1102 62.5873 82.8397 62.6025 82.5359C62.6177 82.2321 62.475 81.9439 62.2308 81.7851L57.3556 78.621C57.1863 78.5113 56.9839 78.475 56.7909 78.517C56.7601 78.5239 53.6646 79.2065 48.9931 79.8807C48.1092 80.0085 47.0022 80.0734 45.7033 80.0734C41.0368 80.0734 35.8463 79.2629 34.8509 78.732C34.8364 78.633 34.8547 78.5071 34.9947 78.3975Z" fill="#8C6BCF"/>
<path d="M41.6384 96.0392C63.3203 96.0196 74.9573 91.9202 77.1991 89.3406C77.9927 88.428 78.0784 87.564 78.0111 86.9996C77.8445 85.6109 76.6545 84.7607 76.5196 84.6683C76.1942 84.4458 75.7574 84.504 75.5036 84.8153C75.2503 85.1266 75.2444 85.5815 75.4986 85.8926C75.6353 86.0796 75.7144 86.3926 75.3145 86.8181C74.4183 87.708 65.3794 90.4092 50.3294 91.2207C48.2678 91.3346 46.1054 91.3926 43.9028 91.393C30.4278 91.393 20.5661 89.4306 19.2715 88.2872C19.7705 87.525 23.2588 86.3072 26.9684 85.6184C27.3865 85.5408 27.6689 85.1221 27.6041 84.6762C27.5393 84.2306 27.1528 83.9239 26.7304 83.9821C26.6257 83.9972 26.2706 84.0197 25.8594 84.0466C19.7385 84.4439 12.6653 85.3294 12.2962 88.6823C12.1842 89.704 12.4697 90.6315 13.1453 91.4387C14.7983 93.4134 19.5497 96.0388 41.6376 96.0388C41.638 96.0392 41.638 96.0392 41.6384 96.0392Z" fill="#8C6BCF"/>
<path d="M81.4578 90.0675C81.1513 89.9168 80.7891 89.9929 80.5605 90.2553C80.5288 90.2918 77.2689 93.9158 67.4675 96.0439C63.7152 96.8432 56.6718 97.2486 46.5329 97.2486C36.3751 97.2486 26.7094 96.8237 26.6131 96.8193C26.2093 96.7984 25.864 97.1105 25.8091 97.5331C25.754 97.9552 26.0101 98.3533 26.3999 98.4519C26.5005 98.4772 36.6301 101 50.4801 101C57.1229 101 63.587 100.427 69.6932 99.2948C81.0786 97.1728 81.8757 91.1708 81.9041 90.9163C81.9438 90.5607 81.7638 90.2182 81.4578 90.0675Z" fill="#8C6BCF"/>
</g>
<defs>
<clipPath id="clip0">
<rect width="95" height="101" fill="white"/>
</clipPath>
</defs>
</svg>
