<svg width="174" height="174" viewBox="0 0 174 174" fill="none" xmlns="http://www.w3.org/2000/svg">
<rect x="0.761719" y="0.466797" width="173" height="173" rx="86.5" fill="url(#paint0_linear)"/>
<path d="M94.0831 67.8531C99.2981 67.5235 104.903 67.6434 109.608 70.2208C113.264 72.1989 115.272 76.3349 115.332 80.3809C115.243 80.9204 114.673 81.2201 114.134 81.1902C112.605 81.1902 111.107 81.2201 109.578 81.1902C108.949 81.2201 108.559 80.6207 108.469 80.0513C108.02 78.1032 106.971 76.185 105.142 75.2559C102.355 73.8473 99.0883 73.9372 96.0612 73.9672C93.8434 74.0871 91.4457 74.2669 89.5575 75.5856C88.1189 76.5746 87.6694 78.5827 88.1789 80.2011C88.6584 81.37 90.0071 81.7296 91.0861 82.0893C97.3799 83.7377 104.063 83.5878 110.237 85.7457C112.785 86.6448 115.302 88.3532 116.172 91.0206C117.311 94.6171 116.801 98.9029 114.253 101.78C112.185 104.148 109.158 105.437 106.161 106.156C102.145 107.055 98.0093 107.085 93.9333 106.665C90.097 106.216 86.1409 105.227 83.1738 102.619C80.6562 100.431 79.4274 97.0147 79.5473 93.7179C79.5773 93.1485 80.1168 92.7589 80.6562 92.8188C82.1847 92.8188 83.7132 92.7888 85.2418 92.8188C85.8412 92.7888 86.2907 93.2984 86.3207 93.8678C86.5904 95.726 87.3097 97.6441 88.8982 98.753C92.0152 100.761 95.9114 100.611 99.4479 100.671C102.385 100.551 105.712 100.491 108.109 98.5432C109.368 97.4343 109.758 95.5761 109.398 93.9877C109.039 92.639 107.63 92.0096 106.401 91.59C100.167 89.6119 93.4238 90.3312 87.2798 88.1134C84.7922 87.2443 82.3646 85.5659 81.4055 82.9884C80.0568 79.3619 80.6862 74.8663 83.5035 72.079C86.3207 69.2917 90.3068 68.2128 94.0831 67.8531V67.8531Z" fill="white"/>
<path d="M83.6233 39.5008C86.021 38.1221 89.1379 38.1221 91.5356 39.5008C103.554 46.3042 115.602 53.0776 127.62 59.8809C129.868 61.1697 131.397 63.6872 131.367 66.2947V107.205C131.397 109.932 129.718 112.51 127.321 113.738C115.332 120.512 103.344 127.255 91.3558 134.029C88.8981 135.437 85.7212 135.317 83.3536 133.819C79.7571 131.721 76.1606 129.653 72.5641 127.585C71.8148 127.135 71.0056 126.806 70.4961 126.086C70.9456 125.457 71.7848 125.397 72.4442 125.127C73.9427 124.648 75.3214 123.899 76.7 123.149C77.0597 122.91 77.4793 122.999 77.809 123.209C80.896 124.977 83.923 126.776 87.01 128.544C87.6693 128.934 88.3287 128.424 88.8982 128.094C100.677 121.441 112.455 114.817 124.204 108.164C124.653 107.954 124.893 107.505 124.833 107.025V66.5344C124.893 65.995 124.563 65.4855 124.084 65.2757C112.155 58.5023 100.227 51.7888 88.2688 45.0454C87.8492 44.7457 87.2797 44.7457 86.8601 45.0454C74.9018 51.7888 62.9734 58.5322 51.0151 65.2457C50.5355 65.4555 50.2059 65.965 50.2658 66.5045V106.995C50.2358 107.475 50.4756 107.924 50.9252 108.134C54.1021 109.932 57.3089 111.73 60.4858 113.529C62.2841 114.488 64.5019 115.057 66.48 114.338C68.2183 113.708 69.4471 111.94 69.4171 110.082C69.4471 96.6551 69.4171 83.2581 69.4171 69.8312C69.3872 69.2318 69.9266 68.7523 70.5261 68.8122C72.0546 68.8122 73.5831 68.7823 75.1116 68.8122C75.741 68.8122 76.1905 69.4416 76.1006 70.041C76.1006 83.5279 76.1306 97.0447 76.1006 110.532C76.1006 114.128 74.6321 118.054 71.3053 119.793C67.1993 121.92 62.1342 121.471 58.0882 119.433C54.5816 117.695 51.2249 115.627 47.7782 113.738C45.3806 112.51 43.7322 109.902 43.7621 107.205V66.2947C43.7322 63.6273 45.3206 61.0798 47.6583 59.821L83.6233 39.5008V39.5008Z" fill="white"/>
<defs>
<linearGradient id="paint0_linear" x1="155.844" y1="173.467" x2="8.79387" y2="173.467" gradientUnits="userSpaceOnUse">
<stop stop-color="#F24F60"/>
<stop offset="1" stop-color="#A5066C"/>
</linearGradient>
</defs>
</svg>
